HIERARCHY
ROOT Hips
{
  OFFSET 359.907 88.2267 203.676
  CHANNELS 6 Xposition Yposition Zposition Zrotation Xrotation Yrotation
  JOINT RightUpLeg
  {
    OFFSET -9.26903 -1.54356 0.00262897
    CHANNELS 6 Xposition Yposition Zposition Zrotation Xrotation Yrotation
    JOINT RightLeg
    {
      OFFSET -0.023212 -41.8943 0.058706
      CHANNELS 6 Xposition Yposition Zposition Zrotation Xrotation Yrotation
      JOINT RightFoot
      {
        OFFSET 0.303098 -43.2763 -0.239418
        CHANNELS 6 Xposition Yposition Zposition Zrotation Xrotation Yrotation
        End Site
        {
          OFFSET 0 -7.69 17.5
        }
      }
    }
  }
  JOINT LeftUpLeg
  {
    OFFSET 9.23586 -1.62607 -0.011623
    CHANNELS 6 Xposition Yposition Zposition Zrotation Xrotation Yrotation
    JOINT LeftLeg
    {
      OFFSET 0.012766 -41.8974 0.039501
      CHANNELS 6 Xposition Yposition Zposition Zrotation Xrotation Yrotation
      JOINT LeftFoot
      {
        OFFSET 0.287671 -40.3022 0.392443
        CHANNELS 6 Xposition Yposition Zposition Zrotation Xrotation Yrotation
        End Site
        {
          OFFSET 0 -7.69 17.5
        }
      }
    }
  }
  JOINT Spine
  {
    OFFSET 0.051711 14.3036 0.0760523
    CHANNELS 6 Xposition Yposition Zposition Zrotation Xrotation Yrotation
    JOINT Spine1
    {
      OFFSET 0.0267561 9.71162 0.0214309
      CHANNELS 6 Xposition Yposition Zposition Zrotation Xrotation Yrotation
      JOINT Spine2
      {
        OFFSET 0.0269 10.1251 0.00477722
        CHANNELS 6 Xposition Yposition Zposition Zrotation Xrotation Yrotation
        JOINT Spine3
        {
          OFFSET 0.0286755 9.71791 0.0146638
          CHANNELS 6 Xposition Yposition Zposition Zrotation Xrotation Yrotation
          JOINT Neck
          {
            OFFSET 0.066239 10.3876 0.0752812
            CHANNELS 6 Xposition Yposition Zposition Zrotation Xrotation Yrotation
            JOINT Head
            {
              OFFSET 0.0813099 9.46489 0.0622348
              CHANNELS 6 Xposition Yposition Zposition Zrotation Xrotation Yrotation
              End Site
              {
                OFFSET 0 15.95 0
              }
            }
          }
          JOINT RightShoulder
          {
            OFFSET -3.18306 6.92695 0.0146943
            CHANNELS 6 Xposition Yposition Zposition Zrotation Xrotation Yrotation
            JOINT RightArm
            {
              OFFSET -12.788 0.048725 0.0445112
              CHANNELS 6 Xposition Yposition Zposition Zrotation Xrotation Yrotation
              JOINT RightForeArm
              {
                OFFSET -26.5108 -0.027622 0.115761
                CHANNELS 6 Xposition Yposition Zposition Zrotation Xrotation Yrotation
                JOINT RightHand
                {
                  OFFSET -25.9914 -0.061889 0.048423
                  CHANNELS 6 Xposition Yposition Zposition Zrotation Xrotation Yrotation
                  JOINT RightHandThumb1
                  {
                    OFFSET -2.48905 0.190105 3.12053
                    CHANNELS 6 Xposition Yposition Zposition Zrotation Xrotation Yrotation
                    JOINT RightHandThumb2
                    {
                      OFFSET -3.68274 0 0
                      CHANNELS 6 Xposition Yposition Zposition Zrotation Xrotation Yrotation
                      JOINT RightHandThumb3
                      {
                        OFFSET -2.55832 0 0
                        CHANNELS 6 Xposition Yposition Zposition Zrotation Xrotation Yrotation
                        End Site
                        {
                          OFFSET -2.194 0 0
                        }
                      }
                    }
                  }
                  JOINT RightInHandIndex
                  {
                    OFFSET -3.22368 0.508421 1.97842
                    CHANNELS 6 Xposition Yposition Zposition Zrotation Xrotation Yrotation
                    JOINT RightHandIndex1
                    {
                      OFFSET -5.21684 -0.091368 0.999158
                      CHANNELS 6 Xposition Yposition Zposition Zrotation Xrotation Yrotation
                      JOINT RightHandIndex2
                      {
                        OFFSET -3.61937 0 0
                        CHANNELS 6 Xposition Yposition Zposition Zrotation Xrotation Yrotation
                        JOINT RightHandIndex3
                        {
                          OFFSET -2.0521 0 0
                          CHANNELS 6 Xposition Yposition Zposition Zrotation Xrotation Yrotation
                          End Site
                          {
                            OFFSET -1.805 0 0
                          }
                        }
                      }
                    }
                  }
                  JOINT RightInHandMiddle
                  {
                    OFFSET -3.38211 0.517263 0.756737
                    CHANNELS 6 Xposition Yposition Zposition Zrotation Xrotation Yrotation
                    JOINT RightHandMiddle1
                    {
                      OFFSET -5.17411 -0.084 0.313895
                      CHANNELS 6 Xposition Yposition Zposition Zrotation Xrotation Yrotation
                      JOINT RightHandMiddle2
                      {
                        OFFSET -3.94947 0 0
                        CHANNELS 6 Xposition Yposition Zposition Zrotation Xrotation Yrotation
                        JOINT RightHandMiddle3
                        {
                          OFFSET -2.47579 0 0
                          CHANNELS 6 Xposition Yposition Zposition Zrotation Xrotation Yrotation
                          End Site
                          {
                            OFFSET -1.975 0 0
                          }
                        }
                      }
                    }
                  }
                  JOINT RightInHandRing
                  {
                    OFFSET -3.36516 0.537895 -0.128947
                    CHANNELS 6 Xposition Yposition Zposition Zrotation Xrotation Yrotation
                    JOINT RightHandRing1
                    {
                      OFFSET -4.63474 -0.022105 -0.478947
                      CHANNELS 6 Xposition Yposition Zposition Zrotation Xrotation Yrotation
                      JOINT RightHandRing2
                      {
                        OFFSET -3.44238 0 0
                        CHANNELS 6 Xposition Yposition Zposition Zrotation Xrotation Yrotation
                        JOINT RightHandRing3
                        {
                          OFFSET -2.3881 0 0
                          CHANNELS 6 Xposition Yposition Zposition Zrotation Xrotation Yrotation
                          End Site
                          {
                            OFFSET -1.857 0 0
                          }
                        }
                      }
                    }
                  }
                  JOINT RightInHandPinky
                  {
                    OFFSET -3.16105 0.469368 -1.20179
                    CHANNELS 6 Xposition Yposition Zposition Zrotation Xrotation Yrotation
                    JOINT RightHandPinky1
                    {
                      OFFSET -4.14105 -0.022105 -1.09053
                      CHANNELS 6 Xposition Yposition Zposition Zrotation Xrotation Yrotation
                      JOINT RightHandPinky2
                      {
                        OFFSET -2.75653 0 0
                        CHANNELS 6 Xposition Yposition Zposition Zrotation Xrotation Yrotation
                        JOINT RightHandPinky3
                        {
                          OFFSET -1.74189 0 0
                          CHANNELS 6 Xposition Yposition Zposition Zrotation Xrotation Yrotation
                          End Site
                          {
                            OFFSET -1.645 0 0
                          }
                        }
                      }
                    }
                  }
                }
              }
            }
          }
          JOINT LeftShoulder
          {
            OFFSET 3.23107 6.91904 -0.00126745
            CHANNELS 6 Xposition Yposition Zposition Zrotation Xrotation Yrotation
            JOINT LeftArm
            {
              OFFSET 12.8196 -0.036347 -0.0488684
              CHANNELS 6 Xposition Yposition Zposition Zrotation Xrotation Yrotation
              JOINT LeftForeArm
              {
                OFFSET 26.4774 0.120325 -0.211634
                CHANNELS 6 Xposition Yposition Zposition Zrotation Xrotation Yrotation
                JOINT LeftHand
                {
                  OFFSET 25.9211 -0.025712 0.249631
                  CHANNELS 6 Xposition Yposition Zposition Zrotation Xrotation Yrotation
                  JOINT LeftHandThumb1
                  {
                    OFFSET 2.48905 0.190105 3.12053
                    CHANNELS 6 Xposition Yposition Zposition Zrotation Xrotation Yrotation
                    JOINT LeftHandThumb2
                    {
                      OFFSET 3.68274 0 0
                      CHANNELS 6 Xposition Yposition Zposition Zrotation Xrotation Yrotation
                      JOINT LeftHandThumb3
                      {
                        OFFSET 2.55832 0 0
                        CHANNELS 6 Xposition Yposition Zposition Zrotation Xrotation Yrotation
                        End Site
                        {
                          OFFSET 2.194 0 0
                        }
                      }
                    }
                  }
                  JOINT LeftInHandIndex
                  {
                    OFFSET 3.22368 0.508421 1.97842
                    CHANNELS 6 Xposition Yposition Zposition Zrotation Xrotation Yrotation
                    JOINT LeftHandIndex1
                    {
                      OFFSET 5.21684 -0.091368 0.999158
                      CHANNELS 6 Xposition Yposition Zposition Zrotation Xrotation Yrotation
                      JOINT LeftHandIndex2
                      {
                        OFFSET 3.61937 0 0
                        CHANNELS 6 Xposition Yposition Zposition Zrotation Xrotation Yrotation
                        JOINT LeftHandIndex3
                        {
                          OFFSET 2.0521 0 0
                          CHANNELS 6 Xposition Yposition Zposition Zrotation Xrotation Yrotation
                          End Site
                          {
                            OFFSET 1.805 0 0
                          }
                        }
                      }
                    }
                  }
                  JOINT LeftInHandMiddle
                  {
                    OFFSET 3.38211 0.517263 0.756737
                    CHANNELS 6 Xposition Yposition Zposition Zrotation Xrotation Yrotation
                    JOINT LeftHandMiddle1
                    {
                      OFFSET 5.17411 -0.084 0.313895
                      CHANNELS 6 Xposition Yposition Zposition Zrotation Xrotation Yrotation
                      JOINT LeftHandMiddle2
                      {
                        OFFSET 3.94947 0 0
                        CHANNELS 6 Xposition Yposition Zposition Zrotation Xrotation Yrotation
                        JOINT LeftHandMiddle3
                        {
                          OFFSET 2.47579 0 0
                          CHANNELS 6 Xposition Yposition Zposition Zrotation Xrotation Yrotation
                          End Site
                          {
                            OFFSET 1.975 0 0
                          }
                        }
                      }
                    }
                  }
                  JOINT LeftInHandRing
                  {
                    OFFSET 3.36516 0.537895 -0.128947
                    CHANNELS 6 Xposition Yposition Zposition Zrotation Xrotation Yrotation
                    JOINT LeftHandRing1
                    {
                      OFFSET 4.63474 -0.022105 -0.478947
                      CHANNELS 6 Xposition Yposition Zposition Zrotation Xrotation Yrotation
                      JOINT LeftHandRing2
                      {
                        OFFSET 3.44238 0 0
                        CHANNELS 6 Xposition Yposition Zposition Zrotation Xrotation Yrotation
                        JOINT LeftHandRing3
                        {
                          OFFSET 2.3881 0 0
                          CHANNELS 6 Xposition Yposition Zposition Zrotation Xrotation Yrotation
                          End Site
                          {
                            OFFSET 1.857 0 0
                          }
                        }
                      }
                    }
                  }
                  JOINT LeftInHandPinky
                  {
                    OFFSET 3.16105 0.469368 -1.20179
                    CHANNELS 6 Xposition Yposition Zposition Zrotation Xrotation Yrotation
                    JOINT LeftHandPinky1
                    {
                      OFFSET 4.14105 -0.022105 -1.09053
                      CHANNELS 6 Xposition Yposition Zposition Zrotation Xrotation Yrotation
                      JOINT LeftHandPinky2
                      {
                        OFFSET 2.75653 0 0
                        CHANNELS 6 Xposition Yposition Zposition Zrotation Xrotation Yrotation
                        JOINT LeftHandPinky3
                        {
                          OFFSET 1.74189 0 0
                          CHANNELS 6 Xposition Yposition Zposition Zrotation Xrotation Yrotation
                          End Site
                          {
                            OFFSET 1.645 0 0
                          }
                        }
                      }
                    }
                  }
                }
              }
            }
          }
        }
      }
    }
  }
}
MOTION
Frames:	3
Frame Time:	0.00833333
359.907 88.2267 203.676 25.5908 14.1224 -65.5537 -9.26903 -1.54356 0.00262897 -23.2905 -56.9323 -22.4635 -0.023212 -41.8943 0.058706 -0.601355 27.2079 -18.0601 0.303098 -43.2763 -0.239418 10.5392 5.96845 27.9771 9.23586 -1.62607 -0.011623 11.6696 -48.9997 -6.36761 0.012766 -41.8974 0.039501 2.10067 31.6314 7.1866 0.287671 -40.3022 0.392443 -13.5254 -10.247 -17.3508 0.051711 14.3036 0.0760523 -7.67406 12.9098 14.4861 0.0267561 9.71162 0.0214309 -1.61242 3.4099 3.41728 0.0269 10.1251 0.00477722 -2.69512 5.50473 5.56886 0.0286755 9.71791 0.0146638 -0.124824 -0.422098 -0.612839 0.066239 10.3876 0.0752812 -0.124729 -0.425125 -0.612057 0.0813099 9.46489 0.0622348 -2.98586 -7.95694 -10.748 -3.18306 6.92695 0.0146943 2.34278 -11.3275 21.3176 -12.788 0.048725 0.0445112 74.3767 -3.19111 51.3333 -26.5108 -0.027622 0.115761 31.2324 -58.107 19.6657 -25.9914 -0.061889 0.048423 25.1772 -17.4427 -17.9256 -2.48905 0.190105 3.12053 28.184 10.7294 19.1592 -3.68274 -1.06581e-14 1.13687e-13 2.24715e-14 -7.70291e-16 -10 -2.55832 3.55271e-15 0 -1.22802e-15 -2.38542e-15 -10 -3.22368 0.508421 1.97842 4.41391e-32 -1.59028e-15 1.59028e-15 -5.21684 -0.091368 0.999158 19.9818 0.871897 2.3964 -3.61937 0 2.84217e-14 24 3.57812e-15 6.36111e-15 -2.0521 0 0 20 -1.59028e-15 7.95139e-15 -3.38211 0.517263 0.756737 4.41391e-32 -1.59028e-15 1.59028e-15 -5.17411 -0.084 0.313895 20 2.38542e-15 6.36111e-15 -3.94947 -2.84217e-14 0 24 -1.98785e-15 -3.18055e-15 -2.47579 0 0 20 0 3.18055e-15 -3.36516 0.537895 -0.128947 4.41391e-32 -1.59028e-15 1.59028e-15 -4.63474 -0.022105 -0.478947 19.9748 -1.02565 -2.81938 -3.44238 2.84217e-14 -2.84217e-14 24 -1.59028e-15 -0 -2.3881 0 5.68434e-14 20 -1.11319e-14 6.36111e-15 -3.16105 0.469368 -1.20179 4.41391e-32 -1.59028e-15 1.59028e-15 -4.14105 -0.022105 -1.09053 19.7815 -3.00948 -8.30515 -2.75653 -1.42109e-14 0 24 -1.19271e-15 -3.18055e-15 -1.74189 0 0 20 -9.54166e-15 9.54166e-15 3.23107 6.91904 -0.00126745 13.5533 -13.7043 -30.7727 12.8196 -0.036347 -0.0488684 -36.7227 33.0592 -71.9405 26.4774 0.120325 -0.211634 23.3502 -68.2245 24.4092 25.9211 -0.025712 0.249631 -22.6708 -19.3529 10.5811 2.48905 0.190105 3.12053 -28.184 10.7294 -19.1592 3.68274 0 0 -5.60818e-16 3.18055e-15 10 2.55832 0 0 5.60818e-16 -3.18055e-15 10 3.22368 0.508421 1.97842 -6.36111e-15 0 -3.18055e-15 5.21684 -0.091368 0.999158 -19.9818 0.871897 -2.3964 3.61937 -2.84217e-14 5.68434e-14 -24 6.36111e-15 -3.18055e-15 2.0521 0 0 -20 -3.97569e-15 -1.27222e-14 3.38211 0.517263 0.756737 -6.36111e-15 0 -3.18055e-15 5.17411 -0.084 0.313895 -20 -9.54166e-15 -3.18055e-15 3.94947 0 -2.84217e-14 -24 -3.18055e-15 -0 2.47579 0 2.84217e-14 -20 7.95139e-16 -3.18055e-15 3.36516 0.537895 -0.128947 -6.36111e-15 0 -3.18055e-15 4.63474 -0.022105 -0.478947 -19.9748 -1.02565 2.81938 3.44238 -2.84217e-14 -2.84217e-14 -24 4.77083e-15 3.18055e-15 2.3881 0 -5.68434e-14 -20 3.97569e-15 -3.18055e-15 3.16105 0.469368 -1.20179 -6.36111e-15 0 -3.18055e-15 4.14105 -0.022105 -1.09053 -19.7815 -3.00948 8.30515 2.75653 0 0 -24 -1.19271e-15 -3.18055e-15 1.74189 2.84217e-14 -2.84217e-14 -20 -3.97569e-15 -6.36111e-15 
359.908 88.2267 203.679 25.5816 14.0867 -65.5704 -9.2741 -1.54416 0.00196418 -23.2339 -56.9164 -22.3925 -0.029301 -41.8941 0.0617432 -0.640568 27.1749 -17.9867 0.299684 -43.2729 -0.246625 10.5442 5.98866 27.9221 9.23522 -1.62625 -0.010205 11.6726 -48.957 -6.32936 0.0128858 -41.8979 0.0384817 2.04827 31.6673 7.2447 0.290976 -40.3015 0.431287 -13.5185 -10.2902 -17.405 0.0535235 14.3036 0.0767672 -7.63985 12.8769 14.524 0.0275222 9.71169 0.0216419 -1.60408 3.40039 3.42977 0.0260654 10.1251 0.00427218 -2.68164 5.4894 5.58962 0.0285342 9.71791 0.0144852 -0.130656 -0.41856 -0.612625 0.0712584 10.3875 0.0762269 -0.130578 -0.421631 -0.611841 0.0847268 9.46497 0.063111 -3.08549 -7.88929 -10.738 -3.18295 6.92705 0.0149359 2.33697 -11.0331 21.2002 -12.7877 0.039871 0.0441294 74.8333 -3.50561 51.0715 -26.5109 -0.0434245 0.0942646 33.4712 -57.9795 22.3465 -25.9917 -0.047151 0.0456853 25.1295 -17.3758 -17.8432 -2.48905 0.190105 3.12053 28.184 10.7294 19.1592 -3.68274 1.77636e-14 -5.68434e-14 -9.6094e-14 2.21691e-15 -10 -2.55832 -1.77636e-14 -5.68434e-14 -9.707e-15 2.18663e-15 -10 -3.22368 0.508421 1.97842 -3.18055e-15 -1.59028e-15 6.36111e-15 -5.21684 -0.091368 0.999158 19.9818 0.871897 2.3964 -3.61937 7.10543e-15 2.84217e-14 24 -2.78299e-15 -1.90833e-14 -2.0521 0 0 20 1.59028e-15 2.54444e-14 -3.38211 0.517263 0.756737 -3.18055e-15 -1.59028e-15 6.36111e-15 -5.17411 -0.084 0.313895 20 -7.95139e-15 -1.27222e-14 -3.94947 2.13163e-14 5.68434e-14 24 -8.74653e-15 -9.54166e-15 -2.47579 0 2.84217e-14 20 6.36111e-15 2.22639e-14 -3.36516 0.537895 -0.128947 -3.18055e-15 -1.59028e-15 6.36111e-15 -4.63474 -0.022105 -0.478947 19.9748 -1.02565 -2.81938 -3.44238 0 2.84217e-14 24 -6.75868e-15 -1.27222e-14 -2.3881 0 -5.68434e-14 20 4.77083e-15 1.59028e-14 -3.16105 0.469368 -1.20179 -3.18055e-15 -1.59028e-15 6.36111e-15 -4.14105 -0.022105 -1.09053 19.7815 -3.00948 -8.30515 -2.75653 -1.42109e-14 5.68434e-14 24 -8.74653e-15 -1.90833e-14 -1.74189 -2.84217e-14 0 20 -6.36111e-15 6.36111e-15 3.23113 6.91886 -0.00137798 13.6165 -13.6469 -30.9021 12.8198 -0.0361672 -0.0487943 -36.1864 33.1612 -72.2964 26.4791 0.10582 -0.19884 23.2492 -67.2928 24.2784 25.9235 -0.0200274 0.232451 -22.4238 -19.4125 10.673 2.48905 0.190105 3.12053 -28.184 10.7294 -19.1592 3.68274 0 0 -7.58087e-15 6.36111e-15 10 2.55832 0 0 -5.60818e-16 3.18055e-15 10 3.22368 0.508421 1.97842 -3.18055e-15 9.54166e-15 -3.18055e-15 5.21684 -0.091368 0.999158 -19.9818 0.871897 -2.3964 3.61937 0 -2.84217e-14 -24 -2.38542e-15 6.36111e-15 2.0521 0 2.84217e-14 -20 -3.18055e-15 -3.18055e-15 3.38211 0.517263 0.756737 -3.18055e-15 9.54166e-15 -3.18055e-15 5.17411 -0.084 0.313895 -20 0 3.18055e-15 3.94947 -2.84217e-14 -2.84217e-14 -24 6.36111e-15 -0 2.47579 1.42109e-14 0 -20 1.59028e-15 3.18055e-15 3.36516 0.537895 -0.128947 -3.18055e-15 9.54166e-15 -3.18055e-15 4.63474 -0.022105 -0.478947 -19.9748 -1.02565 2.81938 3.44238 0 2.84217e-14 -24 -3.97569e-15 6.36111e-15 2.3881 -1.42109e-14 0 -20 -1.59028e-15 1.27222e-14 3.16105 0.469368 -1.20179 -3.18055e-15 9.54166e-15 -3.18055e-15 4.14105 -0.022105 -1.09053 -19.7815 -3.00948 8.30515 2.75653 0 2.84217e-14 -24 5.96354e-15 -3.18055e-15 1.74189 0 -2.84217e-14 -20 -7.95139e-15 6.36111e-15 
359.908 88.2267 203.687 25.5723 14.0551 -65.5845 -9.2751 -1.54324 0.00134226 -23.1921 -56.8979 -22.3354 -0.0299984 -41.894 0.0564441 -0.671601 27.1382 -17.9008 0.29235 -43.2715 -0.250283 10.5489 6.00651 27.8481 9.23466 -1.62642 -0.00886214 11.6841 -48.9187 -6.278 0.0133281 -41.8983 0.0378704 1.99788 31.7036 7.29622 0.298625 -40.3008 0.463697 -13.4977 -10.3313 -17.4616 0.0555155 14.3035 0.0773327 -7.60324 12.8417 14.5573 0.0283142 9.71176 0.021836 -1.59528 3.3902 3.44114 0.0256023 10.1251 0.00376003 -2.66741 5.47301 5.60866 0.0283929 9.71791 0.0143004 -0.137299 -0.414636 -0.612408 0.0763662 10.3874 0.0780724 -0.137237 -0.417745 -0.611622 0.0886808 9.46505 0.0633988 -3.19911 -7.81949 -10.7191 -3.18266 6.92715 0.0151778 2.33911 -10.7352 21.0706 -12.7874 0.033708 0.0437717 75.3211 -3.76713 50.8003 -26.511 -0.0445165 0.0830272 35.5286 -57.7821 24.891 -25.9921 -0.0452455 0.0423245 25.1033 -17.3444 -17.71 -2.48905 0.190105 3.12053 28.184 10.7294 19.1592 -3.68274 1.42109e-14 0 -1.57575e-14 -7.45443e-17 -10 -2.55832 0 5.68434e-14 -6.62635e-15 1.3418e-15 -10 -3.22368 0.508421 1.97842 -1.27222e-14 -1.59028e-15 7.95139e-15 -5.21684 -0.091368 0.999158 19.9818 0.871897 2.3964 -3.61937 7.10543e-15 5.68434e-14 24 -9.93923e-15 -3.33958e-14 -2.0521 0 5.68434e-14 20 -3.18055e-15 -1.59028e-14 -3.38211 0.517263 0.756737 -1.27222e-14 -1.59028e-15 7.95139e-15 -5.17411 -0.084 0.313895 20 -2.38542e-15 -1.59028e-14 -3.94947 0 -2.84217e-14 24 9.93923e-15 -3.81667e-14 -2.47579 0 -2.84217e-14 20 -1.59028e-15 -7.95139e-15 -3.36516 0.537895 -0.128947 -1.27222e-14 -1.59028e-15 7.95139e-15 -4.63474 -0.022105 -0.478947 19.9748 -1.02565 -2.81938 -3.44238 0 0 24 7.95139e-15 -2.54444e-14 -2.3881 -2.84217e-14 2.84217e-14 20 -1.59028e-15 -0 -3.16105 0.469368 -1.20179 -1.27222e-14 -1.59028e-15 7.95139e-15 -4.14105 -0.022105 -1.09053 19.7815 -3.00948 -8.30515 -2.75653 7.10543e-15 0 24 -5.96354e-15 -2.22639e-14 -1.74189 0 -2.84217e-14 20 0 -0 3.23119 6.91867 -0.00150487 13.6774 -13.5986 -31.0367 12.8199 -0.0358243 -0.0487174 -35.686 33.2842 -72.629 26.4836 0.0835559 -0.174589 22.9952 -66.02 23.9799 25.9257 -0.0303894 0.213979 -22.3573 -19.743 10.6369 2.48905 0.190105 3.12053 -28.184 10.7294 -19.1592 3.68274 0 0 -1.34793e-14 3.18055e-15 10 2.55832 2.84217e-14 5.68434e-14 -4.91207e-15 9.54166e-15 10 3.22368 0.508421 1.97842 -3.18055e-15 0 3.18055e-15 5.21684 -0.091368 0.999158 -19.9818 0.871897 -2.3964 3.61937 -2.84217e-14 -2.84217e-14 -24 -6.36111e-15 -3.18055e-15 2.0521 1.42109e-14 -2.84217e-14 -20 -2.78299e-15 -0 3.38211 0.517263 0.756737 -3.18055e-15 0 3.18055e-15 5.17411 -0.084 0.313895 -20 -1.27222e-14 3.18055e-15 3.94947 0 -2.84217e-14 -24 0 9.54166e-15 2.47579 0 2.84217e-14 -20 -1.59028e-15 -3.18055e-15 3.36516 0.537895 -0.128947 -3.18055e-15 0 3.18055e-15 4.63474 -0.022105 -0.478947 -19.9748 -1.02565 2.81938 3.44238 0 -2.84217e-14 -24 7.95139e-16 9.54166e-15 2.3881 1.42109e-14 5.68434e-14 -20 0 1.90833e-14 3.16105 0.469368 -1.20179 -3.18055e-15 0 3.18055e-15 4.14105 -0.022105 -1.09053 -19.7815 -3.00948 8.30515 2.75653 0 0 -24 -5.96354e-15 1.59028e-14 1.74189 0 -2.84217e-14 -20 0 1.59028e-14 
